<svg id="Layer_1" data-name="Layer 1" xmlns="http://www.w3.org/2000/svg" viewBox="0 0 1284 1027.8"><defs><style>.cls-1{fill:#3b0986;}.cls-2{fill:#000b39;}.cls-3{fill:#aec3cc;}.cls-4{fill:#cee6f0;}.cls-5{fill:#674b9d;}.cls-6{fill:#f60;}.cls-7{fill:#ffc404;}.cls-8{fill:#f7941d;}.cls-9{fill:#fee400;}.cls-10{fill:#ffc303;}.cls-11{fill:#fdf38f;}.cls-12{fill:#fff;}.cls-13{fill:#f2be51;}.cls-14{fill:#8fb7b8;}.cls-15{fill:#91ad8f;}</style></defs><g id="Background"><rect class="cls-1" y="2.8" width="1281.4" height="1025"/><path class="cls-2" d="M1278.9,0V1025H-2.5V965.9c47.2,10,108.1,16.2,186.4,16.2,382.1,0,226-259,466-326.1s165.4,188.2,328.5-13.9S920.2,253.5,833.9,111.9C806.9,67.6,804.6,30.3,814.2.1L1278.9,0Z" transform="translate(2.5 2.8)"/><path class="cls-3" d="M1228.3,55.9c0,75.1-76.1,136.1-170.1,136.1-55.3,0-104.5-21.1-135.5-53.9-21.7-22.8-34.5-51.3-34.5-82.2A113.28,113.28,0,0,1,903.2,0h310.2a112.41,112.41,0,0,1,14.9,55.9Z" transform="translate(2.5 2.8)"/><path class="cls-4" d="M1142.2,29.8c0,66.9-67.8,121.1-151.4,121.1a181.35,181.35,0,0,1-68-12.9c-16.8-17.7-28.3-38.7-32.6-61.7a107.11,107.11,0,0,1-1.9-20.5A103.86,103.86,0,0,1,889.6,39,114.56,114.56,0,0,1,903.3-.2h234.3a104.38,104.38,0,0,1,4.6,30Z" transform="translate(2.5 2.8)"/><ellipse class="cls-3" cx="935" cy="101.6" rx="16.3" ry="13.1"/><ellipse class="cls-3" cx="990.9" cy="135.1" rx="28" ry="22.4"/><ellipse class="cls-3" cx="995.5" cy="73.6" rx="14" ry="11.2"/><ellipse class="cls-3" cx="1117.8" cy="61.5" rx="33.8" ry="27"/><ellipse class="cls-3" cx="1063.1" cy="107.2" rx="23.3" ry="18.6"/><ellipse class="cls-3" cx="1034" cy="39.1" rx="19.8" ry="15.8"/><ellipse class="cls-3" cx="939.6" cy="41.9" rx="9.3" ry="7.5"/><ellipse class="cls-3" cx="1079.4" cy="19.6" rx="4.7" ry="3.7"/><ellipse class="cls-3" cx="1004.8" cy="12.1" rx="4.7" ry="3.7"/><ellipse class="cls-3" cx="1039.8" cy="79.2" rx="4.7" ry="3.7"/><ellipse class="cls-3" cx="955.9" cy="69.9" rx="4.7" ry="3.7"/><path class="cls-3" d="M913.8,57.8c0,10.3-10.4,18.6-23.3,18.6h-.4a107.11,107.11,0,0,1-1.9-20.5,103.86,103.86,0,0,1,1.3-16.8h1c12.9,0,23.3,8.4,23.3,18.7Z" transform="translate(2.5 2.8)"/><path class="cls-4" d="M432,1023.7H-2.5V952a71.18,71.18,0,0,1,26.8-8c24.4-2.3,47.2,7.3,59.1,23.2a42.59,42.59,0,0,1,13.7-3.7c18.4-1.8,35.2,7.9,39.3,22a27.5,27.5,0,0,1,18.3-8.8c14.2-1.4,27.2,6.8,28.9,18.2a16.1,16.1,0,0,1-.6,7.6l249,21.2Z" transform="translate(2.5 2.8)"/><path class="cls-5" d="M807.1,681.2,617.7,735.4s-66.9-48.6-129.8-26.3S404,770.6,352.8,757.6s-48.9-78.3-114.2-82S164,755.7,96.5,735.2C56.3,723,32.6,669.3-2.5,633.7V0H555.3c8.2,20.6,10.1,49.6-11.5,86.7C497.2,166.8,620.7,148.2,644,206s-32.6,91.3-4.7,137.9,58.2-5.6,109.5,39.1S807.1,681.2,807.1,681.2Z" transform="translate(2.5 2.8)"/><path class="cls-4" d="M853.8,543.8h320.4V472.1a71.18,71.18,0,0,0-26.8-8c-24.4-2.3-47.2,7.3-59.1,23.2a40.11,40.11,0,0,0-13.7-3.6c-18.4-1.8-35.2,7.9-39.3,22a27.5,27.5,0,0,0-18.3-8.8c-14.2-1.4-27.2,6.8-28.9,18.2a16.1,16.1,0,0,0,.6,7.6L853.8,543.8Z" transform="translate(2.5 2.8)"/><path class="cls-4" d="M957.6,1024H1278V952.3a71.18,71.18,0,0,0-26.8-8c-24.4-2.3-47.2,7.3-59.1,23.2a42.59,42.59,0,0,0-13.7-3.7c-18.4-1.8-35.2,7.9-39.3,22a27.5,27.5,0,0,0-18.3-8.8c-14.2-1.4-27.2,6.8-28.9,18.2a16.1,16.1,0,0,0,.6,7.6L957.6,1024Z" transform="translate(2.5 2.8)"/></g><g id="sax"><polygon class="cls-6" points="1283.9 88.2 1283.9 106.8 1223.9 116.8 1220.9 98.7 1283.9 88.2"/><polygon class="cls-6" points="1283.9 179.5 1283.9 198.1 1238 205.7 1235 187.6 1283.9 179.5"/><path class="cls-7" d="M1247.6,128.4c3.7,24.5,11.3,57.9,33.9,176.5V698.8c-144.9,151.2-320,30.4-340.2-45.2-14.4-53.8-48.5-71-68.8-76.5-1.3-.3-2.6-.7-3.8-.9l-1.2-.3c-1.5-.3-3-.6-4.2-.8s-2-.3-2.8-.4h-.4a.9.9,0,0,1-.5-.1c-1.9-.2-3-.2-3-.2l95.2-234.5,8.1-20,12.5-30.7c4.6,3.2,9,6.6,13.4,10.1a330.2,330.2,0,0,1,125,258.8V576a28.64,28.64,0,0,0,.3,4.2,33.83,33.83,0,0,0,33.6,29.6c.9,0,1.9,0,2.9-.1,31.8-2.1,55.1-30.9,51.5-62.5l-1.1-10.1-45-397.4C1148.8,76.2,1178.9-.4,1221.7-.1h59.8v11c-18.5,15.7-44.2,50.2-33.9,117.5Z" transform="translate(2.5 2.8)"/><path class="cls-8" d="M1263.1,648l-125.6,50.8s-57.9-19.8-57.9-22.6-19.8-66.3-19.8-66.3l51.1-29.6a33.83,33.83,0,0,0,33.6,29.6c.9,0,1.9,0,2.9-.1,31.8-2.1,55.1-30.9,51.5-62.5l-1.1-10.1c9.7-10,20.1-23.2,30.7-40.2,52.9-84.8,34.6,151,34.6,151Z" transform="translate(2.5 2.8)"/><path class="cls-9" d="M1247.6,128.4c3.7,24.5,11.3,57.9,33.9,176.5V698.8c-129.9,135.5-284.1,52.5-329.2-20.6a90.19,90.19,0,0,1-11-24.5c-14.4-53.8-48.5-71-68.8-76.5a67.06,67.06,0,0,0-16-2.6l88.9-235.8c6,.7,13.2,3.3,21.2,7.6,55.8,29.9,149.7,141.3,143.9,257v17.8c0,3.5,1.7,7.6,4.6,12,18.9,29.4,55.3,28.1,86.4,12.1,24.8-12.8,38.9-25.5,40.3-56.6l-59.3-408C1176.4,87,1206.2,31.3,1234.6,0h46.7V11c-18.4,15.6-44,50.1-33.7,117.4Z" transform="translate(2.5 2.8)"/><path class="cls-6" d="M985.6,299.5l-19,46.9a75.63,75.63,0,0,0-15-6.3l8.1-20,12.5-30.7c4.6,3.2,9.1,6.6,13.4,10.1Z" transform="translate(2.5 2.8)"/><path class="cls-8" d="M966.7,346.4,911.2,483.8l-38.7,93.3a67.06,67.06,0,0,0-16-2.6l88.9-235.8c6,.8,13.3,3.4,21.3,7.7Z" transform="translate(2.5 2.8)"/><polygon class="cls-8" points="1168.9 205.8 1131.4 212.9 1131.4 181.6 1168.9 185.8 1168.9 205.8"/><ellipse class="cls-6" cx="1127.6" cy="193.7" rx="11.6" ry="30.7"/><polygon class="cls-8" points="1176.4 268.3 1140.1 274.5 1140.1 247 1176.4 250.8 1176.4 268.3"/><ellipse class="cls-6" cx="1136.4" cy="260.8" rx="11.2" ry="30"/><polygon class="cls-8" points="1187.7 334.6 1151.4 340.9 1151.4 313.4 1187.7 317.1 1187.7 334.6"/><ellipse class="cls-6" cx="1147.7" cy="327.1" rx="11.2" ry="30"/><polygon class="cls-8" points="1194.7 405.2 1158.5 411.5 1158.5 384 1194.7 387.7 1194.7 405.2"/><ellipse class="cls-6" cx="1154.7" cy="397.7" rx="11.2" ry="30"/><polygon class="cls-8" points="1206 477.2 1169.7 483.5 1169.7 456 1206 459.7 1206 477.2"/><ellipse class="cls-6" cx="1166" cy="469.7" rx="11.2" ry="30"/><path class="cls-10" d="M895.6,478.1l-40.8,98.3a19.81,19.81,0,0,1-24,11.4h0A19.89,19.89,0,0,1,818,561.3L937.4,266.6a20.23,20.23,0,0,1,27.2-10.8h0a20.22,20.22,0,0,1,10.3,25.9Z" transform="translate(2.5 2.8)"/><path class="cls-11" d="M1281.4,447V698.8c-129.9,135.5-284.1,52.5-329.2-20.6l.2-.2c21.3-17.1,52.3-12.7,68.7,9.2,21,28.1,55.8,46.6,94.4,47.6,57.9,1.4,157.4-67.1,150.1-129.9-6.1-52.2-44.7-313.9-57.6-401.4a16.08,16.08,0,0,1,22.3-17.1h0a16.14,16.14,0,0,1,9.5,12.1L1281.4,447Z" transform="translate(2.5 2.8)"/><path class="cls-11" d="M982.1,557.6s-57.9,11.3-50.8,43.8,31.1,52.2,60.7,43.8,25.4-96.1-9.9-87.6Z" transform="translate(2.5 2.8)"/></g><g id="tunes"><polygon class="cls-9" points="684 284.5 677.6 285 673 289.4 670.6 283.5 665 280.5 669.8 276.4 671 270.1 676.4 273.4 682.7 272.6 681.2 278.8 684 284.5"/><polygon class="cls-9" points="770.3 300.5 765.7 298.8 761.2 300.4 761.4 295.6 758.5 291.8 763.1 290.5 765.9 286.6 768.5 290.6 773.1 291.9 770.1 295.7 770.3 300.5"/><polygon class="cls-9" points="779.2 112.9 782.3 115.7 786.2 114.2 784.5 118.1 787.1 121.4 782.9 121 780.6 124.4 779.7 120.4 775.7 119.2 779.3 117.1 779.2 112.9"/><path class="cls-2" d="M686.7,41.4s20.9-30.2,72-44.2c0,0-44.6,14.8-68.8,48.1l-3.2-3.9Z" transform="translate(2.5 2.8)"/><polygon class="cls-9" points="688.4 34.6 692.4 40 699 39.2 695.1 44.6 698 50.7 691.6 48.6 686.7 53.2 686.7 46.5 680.8 43.3 687.2 41.2 688.4 34.6"/><path class="cls-9" d="M724.3,56.9a.83.83,0,0,1-1-.6l-1.5-6.6a.83.83,0,0,1,.6-1,.89.89,0,0,1,1,.6l1.5,6.6A.8.8,0,0,1,724.3,56.9Z" transform="translate(2.5 2.8)"/><path class="cls-9" d="M726.9,68.4a.83.83,0,0,1-1-.6l-1.5-6.6a.83.83,0,0,1,.6-1,.89.89,0,0,1,1,.6l1.5,6.6A.71.71,0,0,1,726.9,68.4Z" transform="translate(2.5 2.8)"/><path class="cls-9" d="M733.9,57.3l-6.6,1.5a.83.83,0,0,1-1-.6.89.89,0,0,1,.6-1l6.6-1.5a.83.83,0,0,1,1,.6A.8.8,0,0,1,733.9,57.3Z" transform="translate(2.5 2.8)"/><path class="cls-9" d="M722.4,59.9l-6.6,1.5a.83.83,0,0,1-1-.6.89.89,0,0,1,.6-1l6.6-1.5a.83.83,0,0,1,1,.6A.8.8,0,0,1,722.4,59.9Z" transform="translate(2.5 2.8)"/><path class="cls-9" d="M707.2,300.6a1.27,1.27,0,0,1-.6-.1l-4.7-3a.87.87,0,0,1,.9-1.5l4.7,3a.93.93,0,0,1,.3,1.2c-.2.2-.4.4-.6.4Z" transform="translate(2.5 2.8)"/><path class="cls-9" d="M715.4,305.8a1.27,1.27,0,0,1-.6-.1l-4.7-3a.87.87,0,0,1,.9-1.5l4.7,3a.93.93,0,0,1,.3,1.2,2.09,2.09,0,0,1-.6.4Z" transform="translate(2.5 2.8)"/><path class="cls-9" d="M710.1,300a1.27,1.27,0,0,1-.6-.1.93.93,0,0,1-.3-1.2l3-4.7a.87.87,0,1,1,1.5.9l-3,4.7a2.09,2.09,0,0,1-.6.4Z" transform="translate(2.5 2.8)"/><path class="cls-9" d="M704.9,308.2a1.27,1.27,0,0,1-.6-.1.93.93,0,0,1-.3-1.2l3-4.7a.87.87,0,0,1,1.5.9l-3,4.7a2.09,2.09,0,0,1-.6.4Z" transform="translate(2.5 2.8)"/><path class="cls-12" d="M596,223.6a.66.66,0,0,1-.6-.1l-4.7-3a.87.87,0,0,1,.9-1.5l4.7,3a.93.93,0,0,1,.3,1.2c-.2.2-.4.4-.6.4Z" transform="translate(2.5 2.8)"/><path class="cls-12" d="M604.2,228.8a.66.66,0,0,1-.6-.1l-4.7-3a.87.87,0,0,1,.9-1.5l4.7,3a.93.93,0,0,1,.3,1.2c-.2.2-.4.4-.6.4Z" transform="translate(2.5 2.8)"/><path class="cls-12" d="M598.8,223a.66.66,0,0,1-.6-.1.93.93,0,0,1-.3-1.2l3-4.7a.87.87,0,0,1,1.5.9l-3,4.7a.92.92,0,0,1-.6.4Z" transform="translate(2.5 2.8)"/><path class="cls-12" d="M593.7,231.2a.66.66,0,0,1-.6-.1.93.93,0,0,1-.3-1.2l3-4.7a.87.87,0,0,1,1.5.9l-3,4.7c-.2.2-.4.4-.6.4Z" transform="translate(2.5 2.8)"/><path class="cls-12" d="M829,204.6c-.1.1-.2.2-.3.2l-2.8.6a.38.38,0,0,1-.5-.3c0-.2.1-.5.3-.5l2.8-.6a.38.38,0,0,1,.5.3c.1.1,0,.2,0,.3Z" transform="translate(2.5 2.8)"/><path class="cls-12" d="M834,203.4c-.1.1-.2.2-.3.2l-2.8.6a.38.38,0,0,1-.5-.3c0-.2.1-.5.3-.5l2.8-.6a.38.38,0,0,1,.5.3v.3Z" transform="translate(2.5 2.8)"/><path class="cls-12" d="M829.8,203.2c-.1.1-.2.2-.3.2a.38.38,0,0,1-.5-.3l-.7-2.9c0-.2.1-.5.3-.5a.38.38,0,0,1,.5.3l.7,2.9c.1.1.1.3,0,.3Z" transform="translate(2.5 2.8)"/><path class="cls-12" d="M831,208.2c-.1.1-.2.2-.3.2a.38.38,0,0,1-.5-.3l-.7-2.9c0-.2.1-.5.3-.5s.5.1.5.3l.7,2.9v.3Z" transform="translate(2.5 2.8)"/><path class="cls-12" d="M678.5,79.9c-.1.1-.2.2-.3.2l-2.8.7a.38.38,0,0,1-.5-.3c0-.2.1-.5.3-.5l2.8-.7a.38.38,0,0,1,.5.3.19.19,0,0,1,0,.3Z" transform="translate(2.5 2.8)"/><path class="cls-12" d="M683.5,78.7c-.1.1-.2.2-.3.2l-2.8.7a.38.38,0,0,1-.5-.3c0-.2.1-.5.3-.5l2.8-.7a.38.38,0,0,1,.5.3.19.19,0,0,1,0,.3Z" transform="translate(2.5 2.8)"/><path class="cls-12" d="M679.4,78.5c-.1.1-.2.2-.3.2a.38.38,0,0,1-.5-.3l-.7-2.8c0-.2.1-.5.3-.5a.38.38,0,0,1,.5.3l.7,2.8c.1.1,0,.2,0,.3Z" transform="translate(2.5 2.8)"/><path class="cls-12" d="M680.5,83.5c-.1.1-.2.2-.3.2a.38.38,0,0,1-.5-.3l-.7-2.8c0-.2.1-.5.3-.5s.5.1.5.3l.7,2.8c.1.1,0,.2,0,.3Z" transform="translate(2.5 2.8)"/><path class="cls-13" d="M891.6,307.8l.6-15.8h0l.1-3.5-14.3-.6-.3,7,12.8.5-.3,8.9a4.39,4.39,0,0,0-3.1-1.3,4.55,4.55,0,0,0-4.8,4.5,4.7,4.7,0,0,0,4.5,4.9,4.9,4.9,0,0,0,4.8-4.6Z" transform="translate(2.5 2.8)"/><path class="cls-13" d="M876.2,304a4.69,4.69,0,0,0-3.4-1.7,4.55,4.55,0,0,0-4.8,4.5,4.7,4.7,0,0,0,4.5,4.9,4.55,4.55,0,0,0,4.8-4.5l.6-16.2.1-3.1h-1.2l-.6,16.1Z" transform="translate(2.5 2.8)"/><path class="cls-13" d="M933.8,301.3l.6-15.8h0l.1-3.5-14.3-.6-.3,7,12.8.5-.3,8.9a4.39,4.39,0,0,0-3.1-1.3,4.55,4.55,0,0,0-4.8,4.5,4.7,4.7,0,0,0,4.5,4.9,4.83,4.83,0,0,0,4.8-4.6Z" transform="translate(2.5 2.8)"/><path class="cls-13" d="M918.4,297.6a4.69,4.69,0,0,0-3.4-1.7,4.55,4.55,0,0,0-4.8,4.5,4.7,4.7,0,0,0,4.5,4.9,4.55,4.55,0,0,0,4.8-4.5l.6-16.2.1-3.1H919l-.6,16.1Z" transform="translate(2.5 2.8)"/><path class="cls-13" d="M729,388.2l.6-15.8h0l.1-3.5-14.3-.6-.3,7,12.8.5-.3,8.9a4.39,4.39,0,0,0-3.1-1.3,4.55,4.55,0,0,0-4.8,4.5,4.7,4.7,0,0,0,4.5,4.9,4.83,4.83,0,0,0,4.8-4.6Z" transform="translate(2.5 2.8)"/><path class="cls-13" d="M713.5,384.5a4.69,4.69,0,0,0-3.4-1.7,4.55,4.55,0,0,0-4.8,4.5,4.7,4.7,0,0,0,4.5,4.9,4.55,4.55,0,0,0,4.8-4.5l.6-16.2.1-3.1h-1.2l-.6,16.1Z" transform="translate(2.5 2.8)"/><path class="cls-13" d="M691.8,382l-14.7-14.3h0l-3.2-3.1L661,377.8l6.5,6.3L679,372.3l8.2,8a6.14,6.14,0,0,0-3.9,1.8,6,6,0,0,0,8.6,8.4,5.92,5.92,0,0,0-.1-8.5Z" transform="translate(2.5 2.8)"/><path class="cls-13" d="M674.9,393.5a6,6,0,1,0,4,1.7l-15-14.6-2.9-2.8-1.1,1.1,15,14.6Z" transform="translate(2.5 2.8)"/><path class="cls-14" d="M803.7,366a5,5,0,0,1-6.7-1.5,4.81,4.81,0,0,1,1.5-6.6,5,5,0,0,1,6.7,1.5A4.74,4.74,0,0,1,803.7,366Z" transform="translate(2.5 2.8)"/><rect class="cls-14" x="802.04" y="360.21" width="16.4" height="1.6" transform="translate(-65.88 485.64) rotate(-31.91)"/><path class="cls-14" d="M795.8,353.4a5,5,0,0,1-6.7-1.5,4.81,4.81,0,0,1,1.5-6.6,5,5,0,0,1,6.7,1.5A4.66,4.66,0,0,1,795.8,353.4Z" transform="translate(2.5 2.8)"/><rect class="cls-14" x="810.02" y="343.6" width="7.2" height="14.8" transform="translate(-60.08 485.91) rotate(-31.91)"/><polygon class="cls-14" points="812.6 347.3 798.3 356.2 797.6 355.1 814.6 344.6 815.3 345.6 812.6 347.3"/><path class="cls-14" d="M934.9,270.5a5,5,0,0,1-6.7-1.5,4.81,4.81,0,0,1,1.5-6.6,5,5,0,0,1,6.7,1.5A4.66,4.66,0,0,1,934.9,270.5Z" transform="translate(2.5 2.8)"/><rect class="cls-14" x="933.22" y="264.6" width="16.4" height="1.6" transform="translate(4.48 540.53) rotate(-31.91)"/><path class="cls-14" d="M927.1,257.9a5,5,0,0,1-6.7-1.5,4.81,4.81,0,0,1,1.5-6.6,4.89,4.89,0,0,1,6.7,1.6,4.73,4.73,0,0,1-1.5,6.5Z" transform="translate(2.5 2.8)"/><rect class="cls-14" x="941.34" y="248.1" width="7.2" height="14.8" transform="translate(10.24 540.89) rotate(-31.91)"/><polygon class="cls-14" points="943.8 251.8 929.6 260.7 928.9 259.6 945.9 249 946.5 250.1 943.8 251.8"/><path class="cls-14" d="M868.2,430.6a5,5,0,0,1-6.7-1.5,4.81,4.81,0,0,1,1.5-6.6,5,5,0,0,1,6.7,1.5A4.68,4.68,0,0,1,868.2,430.6Z" transform="translate(2.5 2.8)"/><rect class="cls-14" x="866.52" y="424.71" width="16.4" height="1.6" transform="translate(-90.23 529.47) rotate(-31.91)"/><path class="cls-14" d="M860.4,418a5,5,0,0,1-6.7-1.5,4.81,4.81,0,0,1,1.5-6.6,5,5,0,0,1,6.7,1.5A4.83,4.83,0,0,1,860.4,418Z" transform="translate(2.5 2.8)"/><rect class="cls-14" x="874.64" y="408.21" width="7.2" height="14.8" transform="translate(-84.47 529.83) rotate(-31.91)"/><polygon class="cls-14" points="877.1 411.9 862.9 420.8 862.2 419.7 879.2 409.1 879.8 410.2 877.1 411.9"/><path class="cls-14" d="M662.5,329.4a5,5,0,0,1-6.7-1.5,4.81,4.81,0,0,1,1.5-6.6,5,5,0,0,1,6.7,1.5A4.66,4.66,0,0,1,662.5,329.4Z" transform="translate(2.5 2.8)"/><rect class="cls-14" x="660.82" y="323.61" width="16.4" height="1.6" transform="translate(-67.88 405.46) rotate(-31.91)"/><path class="cls-14" d="M654.7,316.8a5,5,0,0,1-6.7-1.5,4.74,4.74,0,0,1,1.5-6.6,5,5,0,0,1,6.7,1.5A4.81,4.81,0,0,1,654.7,316.8Z" transform="translate(2.5 2.8)"/><rect class="cls-14" x="668.92" y="306.99" width="7.2" height="14.8" transform="translate(-62.05 405.8) rotate(-31.91)"/><polygon class="cls-14" points="671.4 310.8 657.2 319.6 656.5 318.6 673.5 308 674.1 309.1 671.4 310.8"/><path class="cls-14" d="M841.1,263.6a5,5,0,0,1-6.7-1.5,4.81,4.81,0,0,1,1.5-6.6,5,5,0,0,1,6.7,1.5A4.66,4.66,0,0,1,841.1,263.6Z" transform="translate(2.5 2.8)"/><rect class="cls-14" x="839.42" y="257.69" width="16.4" height="1.6" transform="translate(-6.04 489.9) rotate(-31.91)"/><path class="cls-14" d="M833.2,251a4.89,4.89,0,0,1-6.7-1.6,4.72,4.72,0,0,1,1.5-6.6,4.89,4.89,0,0,1,6.7,1.6A4.66,4.66,0,0,1,833.2,251Z" transform="translate(2.5 2.8)"/><rect class="cls-14" x="847.41" y="241.21" width="7.2" height="14.8" transform="translate(-0.31 490.2) rotate(-31.91)"/><polygon class="cls-14" points="850 244.9 835.7 253.8 835.1 252.7 852.1 242.2 852.7 243.2 850 244.9"/><path class="cls-14" d="M760.8,238l.3,1.2,15.3-4.1-3-11.1-15.3,4.1-1.9.5,6.9,25.6a7.63,7.63,0,1,0-2.2,13.8,7.65,7.65,0,0,0,5.4-9.4L760.8,238Z" transform="translate(2.5 2.8)"/><rect class="cls-15" x="598.31" y="325.22" width="7.5" height="10.4" transform="translate(-57.99 513.99) rotate(-44.02)"/><path class="cls-15" d="M587.7,335.2a4.89,4.89,0,0,0-1.4-3.8,5,5,0,1,0-.1,7.1l12.5-12.1,2.4-2.3-.9-.9-12.5,12Z" transform="translate(2.5 2.8)"/><path class="cls-12" d="M825.8,471l-.2,2.1-.2,2.1-.9,7.4a2.35,2.35,0,0,0-.8-.2,2.59,2.59,0,0,0-2.9,2.3,2.54,2.54,0,0,0,2.3,2.9,2.59,2.59,0,0,0,2.9-2.3l1.2-9.8,10.7,1.3-.9,7.4a2.35,2.35,0,0,0-.8-.2,2.59,2.59,0,0,0-2.9,2.3,2.54,2.54,0,0,0,2.3,2.9,2.59,2.59,0,0,0,2.9-2.3l1.2-9.8.2-2.1.2-2.1L825.8,471Z" transform="translate(2.5 2.8)"/><path class="cls-12" d="M761.2,426.4l-1.1,1.2-1.1,1.2-3.7,4.2a1,1,0,0,0-.4-.5,1.91,1.91,0,1,0,.2,2.7l4.9-5.6,6.1,5.3-3.7,4.2a1,1,0,0,0-.4-.5,1.91,1.91,0,1,0,.2,2.7l4.9-5.6,1.1-1.2,1.1-1.2-8.1-6.9Z" transform="translate(2.5 2.8)"/><path class="cls-12" d="M696.8,560.4l-.7,2.2-2.9,9.7a2,2,0,0,0-.8-.4,2.72,2.72,0,1,0,1.8,3.4l3.5-11.8c2.6.5,3.1,3.8,3.1,3.8,1.5-4.8-4-6.9-4-6.9Z" transform="translate(2.5 2.8)"/></g></svg>