<svg id="J-letter" xmlns="http://www.w3.org/2000/svg" viewBox="0 0 194.03 251.59"><defs><style>.cls-1{fill:#e37650;}</style></defs><path class="cls-1" d="M78.33,60.59c-9.81-1.93-8.87-11.17-8.87-11.17L62.22,48,53.77,91.21,61,92.62s2.62-8.91,12.42-7l62.83,12.31-11.91,60.8c-3.26,16.64-17.25,32.49-40.25,28C68.4,183.66,54.5,170.83,57.31,149c.22-1.22,1.34-6,5.17-5.28l1-5.22-25.45-5-1,5.22.09,0c.68.14,5.35,1.32,4.17,7.39h.1c-2,14.07.93,26.89,8.53,37.24A50.21,50.21,0,0,0,81,202.58c24.52,4.81,52.73-7.65,59.21-40.74L152.11,101,155,86.42,157,76Z"/></svg>